<svg width="95" height="95" xmlns="http://www.w3.org/2000/svg" xmlns:xlink="http://www.w3.org/1999/xlink" xmlns:svgjs="http://svgjs.com/svgjs" viewBox="709 270 95 95"><svg width="19" height="19" xmlns="http://www.w3.org/2000/svg" xmlns:xlink="http://www.w3.org/1999/xlink" xmlns:svgjs="http://svgjs.com/svgjs" fill="#fff" x="747" y="279"><svg xmlns="http://www.w3.org/2000/svg" xmlns:xlink="http://www.w3.org/1999/xlink" width="19" height="19" viewBox="0.013 0.123 18.246 18.246"><path paint-order="stroke fill markers" fill-rule="evenodd" d="M9.136 18.37c5.032 0 9.123-4.092 9.123-9.124 0-5.031-4.091-9.123-9.123-9.123C4.104.123.013 4.215.013 9.246c0 5.032 4.09 9.123 9.123 9.123zm0-15.206a6.088 6.088 0 0 1 6.082 6.082 6.088 6.088 0 0 1-6.082 6.082 6.088 6.088 0 0 1-6.082-6.082 6.088 6.088 0 0 1 6.082-6.082z"/></svg></svg><svg width="84" height="54" xmlns="http://www.w3.org/2000/svg" xmlns:xlink="http://www.w3.org/1999/xlink" xmlns:svgjs="http://svgjs.com/svgjs" viewBox="0 0.244 84 53.511" fill="#fff" x="720" y="311"><svg xmlns="http://www.w3.org/2000/svg" xmlns:xlink="http://www.w3.org/1999/xlink" width="84" height="54" viewBox="0.343 0.443 82.929 52.829"><path paint-order="stroke fill markers" fill-rule="evenodd" d="M69.668.443L56.064 19.821h8.014c-3.395 12.442-14.865 21.287-27.959 21.287-9.2 0-17.648-4.212-23.181-11.556l-.662-.876L.343 32.645l1.052 1.644C9.012 46.176 21.992 53.272 36.12 53.272c19.69 0 36.857-14.29 40.468-33.451h6.685L69.668.443zm4.324 16.337l-.199 1.29C70.953 36.403 54.758 50.23 36.12 50.23c-12.423 0-23.89-5.925-31.05-15.95l6.108-2.031c6.115 7.576 15.143 11.9 24.942 11.9 15.169 0 28.367-10.743 31.382-25.547l.37-1.823h-5.949l7.746-11.033 7.747 11.033h-3.423z"/></svg></svg><svg width="83" height="73" xmlns="http://www.w3.org/2000/svg" xmlns:xlink="http://www.w3.org/1999/xlink" xmlns:svgjs="http://svgjs.com/svgjs" viewBox="0.027 0 82.946 73" fill="#fff" x="709" y="270"><svg xmlns="http://www.w3.org/2000/svg" xmlns:xlink="http://www.w3.org/1999/xlink" width="83" height="73" viewBox="-0.001 0 82.929 72.985"><path paint-order="stroke fill markers" fill-rule="evenodd" d="M27.206 36.492h-8.01c1.58-5.753 4.997-10.944 9.657-14.75v.707l4.003 1.092c.13.348.276.695.436 1.04l-2.059 3.599 2.239 2.23h-3.094v42.575h33.548V30.41h-3.094l2.239-2.232-2.059-3.599c.16-.345.306-.692.436-1.04l4.004-1.09v-.731a28.913 28.913 0 0 1 4.881 5.045l.66.875 11.935-3.97-1.052-1.643C76.723 13.98 68.89 7.975 59.798 5.049l-2.685-2.676-3.606 2.055a15.582 15.582 0 0 0-1.044-.435L51.365 0H42.94L41.843 3.99c-.35.131-.699.277-1.044.435l-3.606-2.054-2.707 2.697C20.216 9.675 9.443 21.88 6.685 36.492H-.001L13.604 55.87l13.602-19.378zm33.67-3.04v36.492H33.429V33.451h3.093l.672.668 3.606-2.054c.345.158.694.304 1.044.435l1.096 3.992h8.426l1.096-3.991c.35-.13.7-.277 1.044-.435l3.607 2.055.67-.67h3.095zm17.325-11.418l-6.109 2.031a31.98 31.98 0 0 0-6.64-6.147v-3.873l-4.004-1.092c-.13-.348-.277-.696-.436-1.041l1.475-2.58c6.267 2.75 11.72 7.123 15.714 12.702zM37.703 6.166l3.018 1.718.742-.392a12.127 12.127 0 0 1 2.087-.87l.801-.245.915-3.336h3.772l.916 3.335.8.244c.706.22 1.409.511 2.088.87l.74.392 3.019-1.718 2.668 2.66-1.72 3.009.39.739c.362.68.655 1.38.872 2.083l.247.796 3.343.916v3.76l-3.343.914-.247.797c-.217.697-.51 1.4-.873 2.084l-.39.738 1.721 3.009-2.668 2.66-3.018-1.719-.74.392c-.68.36-1.383.653-2.089.87l-.8.245-.916 3.334h-3.772l-.915-3.334-.801-.245a12.244 12.244 0 0 1-2.087-.87l-.742-.392-3.018 1.718-2.668-2.66 1.722-3.008-.39-.738a12.112 12.112 0 0 1-.873-2.084l-.247-.797-3.344-.916v-3.76l3.344-.914.247-.796c.218-.703.51-1.404.87-2.083l.393-.74-1.722-3.009 2.668-2.657zM9.28 39.533l.2-1.289c1.98-12.778 10.575-23.717 22.345-28.899l1.468 2.567c-.158.345-.305.692-.436 1.041l-4.003 1.09v3.91C22.15 22.63 17.387 29.772 15.77 37.709l-.37 1.824h5.95l-7.746 11.033-7.745-11.033h3.42z"/></svg></svg><svg width="22" height="16" xmlns="http://www.w3.org/2000/svg" xmlns:xlink="http://www.w3.org/1999/xlink" xmlns:svgjs="http://svgjs.com/svgjs" viewBox="0 0.143 22 15.714" fill="#fff" x="745" y="321"><svg xmlns="http://www.w3.org/2000/svg" xmlns:xlink="http://www.w3.org/1999/xlink" width="22" height="16" viewBox="0.492 0.698 21.288 15.205"><path paint-order="stroke fill markers" fill-rule="evenodd" d="M18.739 12.862h-3.041V3.739h-3.041v9.123H9.615V6.78H6.574v6.082H.492v3.04H21.78V.699h-3.041v12.164z"/></svg></svg><svg width="4" height="4" xmlns="http://www.w3.org/2000/svg" xmlns:xlink="http://www.w3.org/1999/xlink" xmlns:svgjs="http://svgjs.com/svgjs" fill="#fff" x="745" y="309"><svg xmlns="http://www.w3.org/2000/svg" xmlns:xlink="http://www.w3.org/1999/xlink" width="4" height="4" viewBox="0.468 0.533 3.041 3.041"><path paint-order="stroke fill markers" fill-rule="evenodd" d="M.468.533h3.04v3.042H.469V.533z"/></svg></svg><svg width="16" height="4" xmlns="http://www.w3.org/2000/svg" xmlns:xlink="http://www.w3.org/1999/xlink" xmlns:svgjs="http://svgjs.com/svgjs" viewBox="0 0.4 16 3.2" fill="#fff" x="751" y="309"><svg xmlns="http://www.w3.org/2000/svg" xmlns:xlink="http://www.w3.org/1999/xlink" width="16" height="4" viewBox="0.583 0.533 15.205 3.041"><path paint-order="stroke fill markers" fill-rule="evenodd" d="M.583.533h15.205v3.042H.583V.533z"/></svg></svg><svg width="22" height="4" xmlns="http://www.w3.org/2000/svg" xmlns:xlink="http://www.w3.org/1999/xlink" xmlns:svgjs="http://svgjs.com/svgjs" viewBox="0 0.429 22 3.143" fill="#fff" x="745" y="315"><svg xmlns="http://www.w3.org/2000/svg" width="22" height="4" viewBox="0.492 0.616 21.288 3.041"><path paint-order="stroke fill markers" fill-rule="evenodd" d="M.492.616H21.78v3.04H.492V.617z"/></svg></svg></svg>